<svg width="2336" height="1182" viewBox="0 0 2336 1182" fill="none" xmlns="http://www.w3.org/2000/svg">
<path d="M2336 0H0V1182H2336V0Z" fill="#1C1C1C"/>
<path d="M123.6 936.53H2092.47V154.12" stroke="#3D3E3F" stroke-width="2.59" stroke-miterlimit="10"/>
<path d="M1708.65 936.53V154.12" stroke="#3D3E3F" stroke-width="2.59" stroke-miterlimit="10"/>
<path d="M917.53 936.53V154.12" stroke="#3D3E3F" stroke-width="2.59" stroke-miterlimit="10"/>
<path d="M1973.3 905.52V154.12" stroke="#3D3E3F" stroke-width="2.59" stroke-miterlimit="10"/>
<path d="M1841.27 905.52V154.12" stroke="#3D3E3F" stroke-width="2.59" stroke-miterlimit="10"/>
<path d="M1578.5 905.52V154.12" stroke="#3D3E3F" stroke-width="2.59" stroke-miterlimit="10"/>
<path d="M1446.96 905.52V154.12" stroke="#3D3E3F" stroke-width="2.59" stroke-miterlimit="10"/>
<path d="M1313.98 905.52V154.12" stroke="#3D3E3F" stroke-width="2.59" stroke-miterlimit="10"/>
<path d="M1181.96 905.52V154.12" stroke="#3D3E3F" stroke-width="2.59" stroke-miterlimit="10"/>
<path d="M1050 905.52V154.12" stroke="#3D3E3F" stroke-width="2.59" stroke-miterlimit="10"/>
<path d="M785.06 905.52V154.12" stroke="#3D3E3F" stroke-width="2.59" stroke-miterlimit="10"/>
<path d="M653.83 905.52V154.12" stroke="#3D3E3F" stroke-width="2.59" stroke-miterlimit="10"/>
<path d="M519.23 905.52V154.12" stroke="#3D3E3F" stroke-width="2.59" stroke-miterlimit="10"/>
<path d="M387.97 905.52V230.002" stroke="#3D3E3F" stroke-width="2.59" stroke-miterlimit="10"/>
<path d="M255.48 905.52V230.002" stroke="#3D3E3F" stroke-width="2.59" stroke-miterlimit="10"/>
<path d="M2092.47 905.52H123.6" stroke="#3D3E3F" stroke-width="2.59" stroke-miterlimit="10"/>
<path d="M2092.47 871.55H123.6" stroke="#3D3E3F" stroke-width="2.59" stroke-miterlimit="10"/>
<path d="M2092.47 817.21H123.6" stroke="#3D3E3F" stroke-width="2.59" stroke-miterlimit="10"/>
<path d="M2092.47 727H123.6" stroke="#3D3E3F" stroke-width="2.59" stroke-miterlimit="10"/>
<path d="M2092.47 635.86H123.6" stroke="#3D3E3F" stroke-width="2.59" stroke-miterlimit="10"/>
<path d="M2092.47 542.52H123.6" stroke="#3D3E3F" stroke-width="2.59" stroke-miterlimit="10"/>
<path d="M2092.47 450.96H123.6" stroke="#3D3E3F" stroke-width="2.59" stroke-miterlimit="10"/>
<path d="M2092.47 361.17H123.6" stroke="#3D3E3F" stroke-width="2.59" stroke-miterlimit="10"/>
<path d="M2092.47 266.65H123.6" stroke="#3D3E3F" stroke-width="2.59" stroke-miterlimit="10"/>
<path d="M292.01 394.97H287.99V405.96H285V424.02H287.99V430H292.01V424.02H295V405.96H292.01V394.97Z" fill="#1EA254"/>
<path d="M159.55 421.03H155.54V452.04H154.02V455.95H155.54V458.02H159.55V455.95H161.07V452.04H159.55V421.03Z" fill="#1EA254"/>
<path d="M241.05 356.03H237.04V372.02H234.05V440.02H244.04V372.02H241.05V356.03Z" fill="#1EA254"/>
<path d="M319 455.99H321.99V481.92H326.01V455.99H329V411H319V455.99Z" fill="#1EA254"/>
<path d="M350.97 453.03H353.96V531.07H357.98V453.03H360.97V399.14H350.97V453.03Z" fill="#1EA254"/>
<path d="M375.04 413.93H371.02V448.93H368.03V472.96H371.02V507.88H375.04V472.96H378.03V448.93H375.04V413.93Z" fill="#1EA254"/>
<path d="M384.98 489.36H387.97V578.1H391.98V489.36H394.97V467.91H384.98V489.36Z" fill="#1EA254"/>
<path d="M441.07 379.89H437.06V394.03H434.07V400.98H437.06V411.67H441.07V400.98H444.06V394.03H441.07V379.89Z" fill="#1EA254"/>
<path d="M509.06 266H505.04V308.29H502.05V377.9H505.04V396H509.06V377.9H512.05V308.29H509.06V266Z" fill="#1EA254"/>
<path d="M541.08 198.07H537.07V254.03H534.07V268.98H537.07V306.97H541.08V268.98H544.07V254.03H541.08V198.07Z" fill="#1EA254"/>
<path d="M574.96 178.89H570.94V214.97H567.95V248H570.94V272.9H574.96V248H577.95V214.97H574.96V178.89Z" fill="#1EA254"/>
<path d="M591.97 206.01H587.95V243.84H584.96V273.99H587.95V302.92H591.97V273.99H594.96V243.84H591.97V206.01Z" fill="#1EA254"/>
<path d="M608.99 254.03H604.97V271.04H601.98V440.03H604.97V477.88H608.99V440.03H611.98V271.04H608.99V254.03Z" fill="#1EA254"/>
<path d="M625.33 401.94H621.32V436.91H619.8V451.03H621.32V463.87H625.33V451.03H626.85V436.91H625.33V401.94Z" fill="#1EA254"/>
<path d="M650.84 567.15H653.83V572.91H657.85V567.15H660.84V426.93H650.84V567.15Z" fill="#1EA254"/>
<path d="M717.02 520.59H720.01V621.91H724.03V520.59H727.02V489H717.02V520.59Z" fill="#1EA254"/>
<path d="M758.01 334.82H753.99V397.9H751V432.02H753.99V435.14H758.01V432.02H761V397.9H758.01V334.82Z" fill="#1EA254"/>
<path d="M773.47 346.12H769.45V429.05H767.93V432.72H769.45V461.03H773.47V432.72H774.98V429.05H773.47V346.12Z" fill="#1EA254"/>
<path d="M837 382.11H832.99V390.01H831.47V393.68H832.99V396.06H837V393.68H838.52V390.01H837V382.11Z" fill="#1EA254"/>
<path d="M852.47 350.96H848.45V385H845.46V394.03H855.46V385H852.47V350.96Z" fill="#1EA254"/>
<path d="M869.03 387.96H865.01V390.01H862.02V416.98H872.02V390.01H869.03V387.96Z" fill="#1EA254"/>
<path d="M902.91 403.08H898.89V407.93H895.9V419.72H898.89V435.04H902.91V419.72H905.9V407.93H902.91V403.08Z" fill="#1EA254"/>
<path d="M935.96 366.99H931.95V368.01H928.96V386.01H931.95V406.09H935.96V386.01H938.95V368.01H935.96V366.99Z" fill="#1EA254"/>
<path d="M969.04 330.82H965.03V352.7H962.04V387.96H972.04V352.7H969.04V330.82Z" fill="#1EA254"/>
<path d="M1003.05 352.11H999.03V364.86H996.04V403.08H999.03V404.08H1003.05V403.08H1006.04V364.86H1003.05V352.11Z" fill="#1EA254"/>
<path d="M1052 311.96H1047.99V334.03H1045V342.04H1047.99V350.96H1052V342.04H1055V334.03H1052V311.96Z" fill="#1EA254"/>
<path d="M1068.99 330.69H1064.97V334.68H1061.98V398.91H1071.98V334.68H1068.99V330.69Z" fill="#1EA254"/>
<path d="M1102.98 363.97H1098.97V378.96H1095.98V388.05H1098.97V400.04H1102.98V388.05H1105.97V378.96H1102.98V363.97Z" fill="#1EA254"/>
<path d="M1118.57 378.53H1114.56V382.26H1111.57V482.07H1121.56V382.26H1118.57V378.53Z" fill="#1EA254"/>
<path d="M1135.07 466.98H1131.06V473.04H1128.07V492.02H1131.06V536.05H1135.07V492.02H1138.07V473.04H1135.07V466.98Z" fill="#1EA254"/>
<path d="M1151.98 453.92H1147.97V488.84H1144.98V559.49H1147.97V572.04H1151.98V559.49H1154.97V488.84H1151.98V453.92Z" fill="#1EA254"/>
<path d="M1169.02 548.43H1165V555H1162.01V626.99H1165V646.14H1169.02V626.99H1172.01V555H1169.02V548.43Z" fill="#1EA254"/>
<path d="M1185.98 612.96H1181.96V623.96H1178.97V784.1H1181.96V807.04H1185.98V784.1H1188.97V623.96H1185.98V612.96Z" fill="#1EA254"/>
<path d="M1202.03 721.73H1198.02V778H1195.03V786.94H1198.02V789.15H1202.03V786.94H1205.02V778H1202.03V721.73Z" fill="#1EA254"/>
<path d="M1218 763.95H1213.98V781.87H1210.99V800.98H1213.98V831.98H1218V800.98H1220.99V781.87H1218V763.95Z" fill="#1EA254"/>
<path d="M1234.98 760.81H1230.97V797.96H1227.98V843.9H1230.97V846.04H1234.98V843.9H1237.97V797.96H1234.98V760.81Z" fill="#1EA254"/>
<path d="M1269.04 732.98H1265.03V753.56H1262.04V782.91H1265.03V816.79H1269.04V782.91H1272.03V753.56H1269.04V732.98Z" fill="#1EA254"/>
<path d="M1318 678.04H1313.98V706.95H1310.99V717.97H1313.98V760.9H1318V717.97H1320.99V706.95H1318V678.04Z" fill="#1EA254"/>
<path d="M1352.02 665.98H1348V669.01H1345.01V711.13H1348V756.88H1352.02V711.13H1355.01V669.01H1352.02V665.98Z" fill="#1EA254"/>
<path d="M1386 469.06H1381.99V603H1379V639.99H1381.99V678.02H1386V639.99H1388.99V603H1386V469.06Z" fill="#1EA254"/>
<path d="M1401.48 596.27H1397.46V633.96H1394.47V711.13H1397.46V756.88H1401.48V711.13H1404.47V633.96H1401.48V596.27Z" fill="#1EA254"/>
<path d="M1418.02 688.84H1414V705.9H1411.01V775.02H1414V785.04H1418.02V775.02H1421.01V705.9H1418.02V688.84Z" fill="#1EA254"/>
<path d="M1462.02 764.89H1465.01V817.01H1469.02V764.89H1472.01V715.99H1462.02V764.89Z" fill="#1EA254"/>
<path d="M1518 709.02H1513.99V713.02H1511V774.99H1513.99V788.02H1518V774.99H1520.99V713.02H1518V709.02Z" fill="#1EA254"/>
<path d="M1535.01 745.99H1531V771.96H1528.01V789.06H1531V795.99H1535.01V789.06H1538V771.96H1535.01V745.99Z" fill="#1EA254"/>
<path d="M1569.01 680.02H1564.99V711.99H1562V730.99H1564.99V733.32H1569.01V730.99H1572V711.99H1569.01V680.02Z" fill="#1EA254"/>
<path d="M1588.5 728.03H1578.5V760.94H1588.5V728.03Z" fill="#1EA254"/>
<path d="M1649 698.88H1644.99V717.01H1642V723.01H1644.99V733.12H1649V723.01H1651.99V717.01H1649V698.88Z" fill="#1EA254"/>
<path d="M1666.05 710.86H1662.03V718.04H1659.04V744.04H1662.03V756.93H1666.05V744.04H1669.04V718.04H1666.05V710.86Z" fill="#1EA254"/>
<path d="M1633.51 698.88H1629.5V713.01H1627.98V717.97H1629.5V723.01H1633.51V717.97H1635.03V713.01H1633.51V698.88Z" fill="#1EA254"/>
<path d="M1699.52 714.1H1695.51V730.01H1692.52V767.06H1702.51V730.01H1699.52V714.1Z" fill="#1EA254"/>
<path d="M1749.02 708.92H1745.01V718.03H1742.01V735.97H1745.01V746H1749.02V735.97H1752.01V718.03H1749.02V708.92Z" fill="#1EA254"/>
<path d="M1783.02 714.79H1779.01V716.95H1776.02V752.01H1779.01V777.96H1783.02V752.01H1786.01V716.95H1783.02V714.79Z" fill="#1EA254"/>
<path d="M1832.03 676.98H1828.02V694.93H1825.03V702.16H1828.02V719.03H1832.03V702.16H1835.02V694.93H1832.03V676.98Z" fill="#1EA254"/>
<path d="M1915.02 556.06H1911.01V597.9H1908.02V605.99H1911.01V628.01H1915.02V605.99H1918.01V597.9H1915.02V556.06Z" fill="#1EA254"/>
<path d="M1932.02 589.83H1928.01V603.02H1925.02V679.21H1928.01V700.01H1932.02V679.21H1935.01V603.02H1932.02V589.83Z" fill="#1EA254"/>
<path d="M1949.02 673.99H1947.5V663.01H1943.49V673.99H1941.97V678.96H1943.49V764.88H1947.5V678.96H1949.02V673.99Z" fill="#1EA254"/>
<path d="M147.03 453H137.03V478.83H147.03V453Z" fill="#EB6455"/>
<path d="M174.99 413.92H170.97V436.96H167.98V455.95H170.97V486.97H174.99V455.95H177.98V436.96H174.99V413.92Z" fill="#EB6455"/>
<path d="M191.99 393.92H187.97V401.95H184.98V439.99H187.97V454.58H191.99V439.99H194.98V401.95H191.99V393.92Z" fill="#EB6455"/>
<path d="M127.93 472.99H123.91V476.03V495.02V521.04H127.93V495.02H129.92V476.03H127.93V472.99Z" fill="#EB6455"/>
<path d="M209.01 372.97H204.99V393.92H202V408.01H212V393.92H209.01V372.97Z" fill="#EB6455"/>
<path d="M226.02 367H222.01V372.02H219.02V400.04H222.01V408.01H226.02V400.04H229.01V372.02H226.02V367Z" fill="#EB6455"/>
<path d="M241.05 356.03H237.04V371.99H234.05V439.99H244.04V371.99H241.05V356.03Z" fill="#EB6455"/>
<path d="M258.06 397.79H254.04V413.01H251.05V439.99H254.04V445.13H258.06V439.99H261.05V413.01H258.06V397.79Z" fill="#EB6455"/>
<path d="M275.03 398.96H271.02V405.96H268.03V418.12H271.02V427.15H275.03V418.12H278.02V405.96H275.03V398.96Z" fill="#EB6455"/>
<path d="M309.01 388.98H304.99V411H302V425.12H304.99V455.99H309.01V425.12H312V411H309.01V388.98Z" fill="#EB6455"/>
<path d="M334.01 455.99H337V497.1H341.02V455.99H344.01V399.14H334.01V455.99Z" fill="#EB6455"/>
<path d="M409 382.44H404.99V437H402V489.73H404.99V537.14H409V489.73H411.99V437H409V382.44Z" fill="#EB6455"/>
<path d="M426 389.95H421.98V396.98H418.99V440.05H428.99V396.98H426V389.95Z" fill="#EB6455"/>
<path d="M458.02 332.01H454V355.03H451.01V400.98H454V412.07H458.02V400.98H461.01V355.03H458.02V332.01Z" fill="#EB6455"/>
<path d="M475.02 314.89H471V338.02H468.01V360.02H471V370.01H475.02V360.02H478.01V338.02H475.02V314.89Z" fill="#EB6455"/>
<path d="M492.04 280.9H488.02V307.75H485.03V343.1H495.03V307.75H492.04V280.9Z" fill="#EB6455"/>
<path d="M509.06 266H505.04V308.25H502.05V377.9H505.04V396H509.06V377.9H512.05V308.25H509.06V266Z" fill="#EB6455"/>
<path d="M526 231.96H521.99V257.89H519V380.52H521.99V412.07H526V380.52H528.99V257.89H526V231.96Z" fill="#EB6455"/>
<path d="M558.02 209.55H554V214.97H551.01V268.98H554V287.14H558.02V268.98H561.01V214.97H558.02V209.55Z" fill="#EB6455"/>
<path d="M640.99 379.84H636.98V426.3H633.99V451.03H636.98V453.1H640.99V451.03H643.98V426.3H640.99V379.84Z" fill="#EB6455"/>
<path d="M675 545.86H670.98V549.91H667.99V567.15H670.98V596.05H675V567.15H677.99V549.91H675V545.86Z" fill="#EB6455"/>
<path d="M691.59 523.99H687.57V547.99H684.58V556.02H687.57V566.04H691.59V556.02H694.58V547.99H691.59V523.99Z" fill="#EB6455"/>
<path d="M708.65 482.11H704.63V489H701.64V554.03H704.63V583.02H708.65V554.03H711.64V489H708.65V482.11Z" fill="#EB6455"/>
<path d="M741.14 372.22H737.12V397.9H734.13V520.59H737.12V534.14H741.14V520.59H744.13V397.9H741.14V372.22Z" fill="#EB6455"/>
<path d="M788.99 397.9H784.97V412.71H781.98V432.02H784.97V484.11H788.99V432.02H791.98V412.71H788.99V397.9Z" fill="#EB6455"/>
<path d="M806.03 382.11H802.01V402.81H799.02V416.98H802.01V420.06H806.03V416.98H809.02V402.81H806.03V382.11Z" fill="#EB6455"/>
<path d="M821.48 379.76H817.46V387.96H814.47V418.98H817.46V422.05H821.48V418.98H824.47V387.96H821.48V379.76Z" fill="#EB6455"/>
<path d="M885.97 400.14H881.95V409.9H878.96V417.05H881.95V425.08H885.97V417.05H888.96V409.9H885.97V400.14Z" fill="#EB6455"/>
<path d="M918.94 358.9H914.93V366.99H911.94V422.05H921.93V366.99H918.94V358.9Z" fill="#EB6455"/>
<path d="M952.5 349.05H948.49V352.7H945.5V386.01H948.49V391.09H952.5V386.01H955.5V352.7H952.5V349.05Z" fill="#EB6455"/>
<path d="M986.1 351.63H982.09V371.88H979.1V391.09H982.09V416.02H986.1V391.09H989.09V371.88H986.1V351.63Z" fill="#EB6455"/>
<path d="M1018.67 342.03H1014.65V345.95H1011.66V404.08H1021.66V345.95H1018.67V342.03Z" fill="#EB6455"/>
<path d="M1035 316H1030.99V336.98H1028V350.96H1030.99V354.91H1035V350.96H1037.99V336.98H1035V316Z" fill="#EB6455"/>
<path d="M1085.99 365H1081.97V378.13H1078.98V398.91H1081.97V406.1H1085.99V398.91H1088.98V378.13H1085.99V365Z" fill="#EB6455"/>
<path d="M1251.99 735H1247.97V753.56H1244.98V843.9H1254.98V753.56H1251.99V735Z" fill="#EB6455"/>
<path d="M1286.01 672.92H1282V719.22H1279.01V782.91H1282V813.9H1286.01V782.91H1289V719.22H1286.01V672.92Z" fill="#EB6455"/>
<path d="M1301.53 680.93H1297.52V709.76H1294.53V722.99H1297.52V769.21H1301.53V722.99H1304.52V709.76H1301.53V680.93Z" fill="#EB6455"/>
<path d="M1335.01 561.19H1330.99V669.01H1328V721.97H1338V669.01H1335.01V561.19Z" fill="#EB6455"/>
<path d="M1369.02 581.96H1365V605.76H1362.01V711.13H1365V715.06H1369.02V711.13H1372.01V605.76H1369.02V581.96Z" fill="#EB6455"/>
<path d="M1435.01 701.05H1430.99V740.44H1428V776.1H1430.99V780.02H1435.01V776.1H1438V740.44H1435.01V701.05Z" fill="#EB6455"/>
<path d="M1452.02 664H1448V715.99H1445.01V741.04H1448V748.94H1452.02V741.04H1455.01V715.99H1452.02V664Z" fill="#EB6455"/>
<path d="M1485.98 724.98H1481.96V740.24H1478.97V768.12H1481.96V776.1H1485.98V768.12H1488.97V740.24H1485.98V724.98Z" fill="#EB6455"/>
<path d="M1501.03 705.44H1497.01V713.02H1494.02V741H1497.01V755.99H1501.03V741H1504.02V713.02H1501.03V705.44Z" fill="#EB6455"/>
<path d="M1544.97 789.94H1547.96V798.04H1551.98V789.94H1554.97V711.99H1544.97V789.94Z" fill="#EB6455"/>
<path d="M1601.04 714.08H1597.03V717.01H1594.04V760.94H1604.03V717.01H1601.04V714.08Z" fill="#EB6455"/>
<path d="M1618.01 701.06H1614V714.08H1611.01V742.88H1621V714.08H1618.01V701.06Z" fill="#EB6455"/>
<path d="M1682.79 717.97H1678.77V726.01H1675.78V744.04H1685.78V726.01H1682.79V717.97Z" fill="#EB6455"/>
<path d="M1715.02 732.65H1711V740.49H1708.01V767.06H1711V807.04H1715.02V767.06H1718.01V740.49H1715.02V732.65Z" fill="#EB6455"/>
<path d="M1732.02 703.67H1728V717.01H1725.01V744.04H1728V754.4H1732.02V744.04H1735.01V717.01H1732.02V703.67Z" fill="#EB6455"/>
<path d="M1766.02 690.84H1762.01V716.95H1759.02V735.02H1762.01V752.01H1766.02V735.02H1769.01V716.95H1766.02V690.84Z" fill="#EB6455"/>
<path d="M1798.96 708.92H1794.94V720.93H1791.95V752.01H1794.94V757.21H1798.96V752.01H1801.95V720.93H1798.96V708.92Z" fill="#EB6455"/>
<path d="M1815.02 680.93H1811V694.93H1808.01V727H1818.01V694.93H1815.02V680.93Z" fill="#EB6455"/>
<path d="M1849.01 659.93H1845V667.95H1842.01V701.99H1845V710.07H1849.01V701.99H1852V667.95H1849.01V659.93Z" fill="#EB6455"/>
<path d="M1865.95 644.11H1861.93V656.97H1858.94V668.86H1861.93V688.06H1865.95V668.86H1868.94V656.97H1865.95V644.11Z" fill="#EB6455"/>
<path d="M1883 636.76H1878.98V656.97H1875.99V664.93H1878.98V668.86H1883V664.93H1885.99V656.97H1883V636.76Z" fill="#EB6455"/>
<path d="M1892.97 664.93H1895.96V675.97H1899.97V664.93H1902.96V595H1892.97V664.93Z" fill="#EB6455"/>
<path d="M1956.04 678.94H1959.03V717.99H1963.05V678.94H1966.04V599.98H1956.04V678.94Z" fill="#EB6455"/>
<path d="M1979.99 529.88H1975.98V545.84H1972.99V605.01H1975.98V612.12H1979.99V605.01H1982.98V545.84H1979.99V529.88Z" fill="#EB6455"/>
<path d="M1999.99 532.92H1997V509.15H1992.98V532.92H1989.99V549.06H1992.98V567.09H1997V549.06H1999.99V532.92Z" fill="#EB6455"/>
<path d="M165.397 54.7295H124.027V96.6698H165.397V54.7295Z" fill="#00780F"/>
<path d="M134.461 84.7215H130.689V66.6675H141.032V69.8039H134.448V74.4568H140.578V77.5803H134.448V84.7215H134.461Z" fill="white"/>
<path d="M159.175 84.7215H154.807L150.608 77.8913L146.409 84.7215H142.313L148.301 75.4158L142.689 66.6675H146.914L150.803 73.1607L154.613 66.6675H158.734L153.071 75.6232L159.175 84.7215Z" fill="white"/>
<path d="M189.539 93.7017V56.4661H214.63V62.9593H197.419V71.8373H213.347V78.3305H197.419V87.2214H214.708V93.7147H189.552L189.539 93.7017Z" fill="white"/>
<path d="M238.664 81.8186V65.7864H246.414V93.7164H238.975V88.6488H238.69C238.055 90.2818 237.018 91.6038 235.553 92.5888C234.089 93.5738 232.313 94.0792 230.213 94.0792C228.347 94.0792 226.701 93.6516 225.288 92.8091C223.876 91.9667 222.761 90.7484 221.97 89.1931C221.18 87.6249 220.778 85.7586 220.765 83.5812V65.7993H228.516V82.1944C228.516 83.8404 228.969 85.1494 229.838 86.1085C230.706 87.0676 231.885 87.5471 233.35 87.5471C234.283 87.5471 235.151 87.3268 235.968 86.8991C236.784 86.4714 237.432 85.8234 237.938 84.9809C238.443 84.1385 238.69 83.0887 238.677 81.8315L238.664 81.8186Z" fill="white"/>
<path d="M252.592 93.7031V65.7731H260.096V70.6463H260.381C260.887 68.9096 261.742 67.6006 262.948 66.7063C264.153 65.812 265.527 65.3713 267.095 65.3713C267.484 65.3713 267.898 65.3973 268.352 65.4491C268.806 65.5009 269.195 65.5657 269.531 65.6435V72.5126C269.169 72.4089 268.663 72.3052 268.028 72.2275C267.393 72.1497 266.797 72.0979 266.265 72.0979C265.125 72.0979 264.114 72.3441 263.22 72.8366C262.325 73.3291 261.626 74.0031 261.107 74.8844C260.589 75.7657 260.33 76.7637 260.33 77.9042V93.7031H252.579H252.592Z" fill="white"/>
<path d="M284.83 94.244C282.004 94.244 279.568 93.6348 277.507 92.4295C275.446 91.2241 273.865 89.5393 272.751 87.3749C271.636 85.2105 271.079 82.6961 271.079 79.8448C271.079 76.9935 271.636 74.4402 272.751 72.2758C273.865 70.1114 275.446 68.4265 277.507 67.2212C279.555 66.0159 282.004 65.4067 284.83 65.4067C287.655 65.4067 290.092 66.0159 292.152 67.2212C294.213 68.4265 295.794 70.1114 296.909 72.2758C298.024 74.4402 298.581 76.9675 298.581 79.8448C298.581 82.722 298.024 85.2234 296.909 87.3749C295.794 89.5393 294.213 91.2241 292.152 92.4295C290.105 93.6348 287.655 94.244 284.83 94.244ZM284.856 88.2432C286.139 88.2432 287.214 87.8803 288.07 87.1416C288.925 86.4028 289.586 85.4049 290.027 84.1347C290.468 82.8646 290.688 81.413 290.688 79.7929C290.688 78.1729 290.468 76.7213 290.027 75.4512C289.586 74.181 288.938 73.1701 288.07 72.4314C287.214 71.6926 286.139 71.3167 284.856 71.3167C283.573 71.3167 282.471 71.6926 281.59 72.4314C280.708 73.1701 280.047 74.181 279.607 75.4512C279.166 76.7213 278.946 78.1729 278.946 79.7929C278.946 81.413 279.166 82.8646 279.607 84.1347C280.047 85.4049 280.708 86.4158 281.59 87.1416C282.471 87.8674 283.56 88.2432 284.856 88.2432Z" fill="white"/>
<path d="M319.837 54.7295L307.836 99.3008H301.161L313.163 54.7295H319.837Z" fill="white"/>
<path d="M346.726 56.4661H354.593V80.6504C354.593 83.3592 353.945 85.7439 352.662 87.7788C351.366 89.8136 349.564 91.3947 347.257 92.5353C344.937 93.6628 342.241 94.2331 339.17 94.2331C336.098 94.2331 333.376 93.6628 331.056 92.5353C328.736 91.4077 326.935 89.8136 325.652 87.7788C324.369 85.7439 323.721 83.3722 323.721 80.6504V56.4661H331.588V79.9765C331.588 81.3892 331.899 82.6593 332.521 83.761C333.143 84.8626 334.024 85.731 335.165 86.366C336.305 87.0011 337.627 87.3122 339.144 87.3122C340.66 87.3122 341.995 87.0011 343.136 86.366C344.263 85.731 345.144 84.8756 345.767 83.761C346.389 82.6593 346.7 81.4022 346.7 79.9765V56.4661H346.726Z" fill="white"/>
<path d="M381.263 67.1706C381.121 65.706 380.499 64.5655 379.397 63.749C378.295 62.9325 376.792 62.5307 374.913 62.5307C373.63 62.5307 372.541 62.7122 371.66 63.0621C370.778 63.425 370.104 63.9175 369.638 64.5396C369.171 65.1747 368.938 65.8875 368.938 66.691C368.912 67.352 369.054 67.9353 369.366 68.4407C369.677 68.9332 370.104 69.3609 370.649 69.7238C371.193 70.0867 371.828 70.3848 372.541 70.657C373.254 70.9162 374.018 71.1365 374.835 71.318L378.179 72.1215C379.799 72.4844 381.289 72.964 382.65 73.5731C384.011 74.1822 385.177 74.921 386.175 75.8153C387.173 76.6966 387.938 77.7464 388.495 78.9388C389.053 80.1441 389.325 81.5179 389.338 83.0602C389.338 85.3413 388.742 87.3113 387.601 88.9832C386.46 90.6551 384.802 91.9382 382.65 92.8584C380.499 93.7786 377.907 94.2322 374.874 94.2322C371.841 94.2322 369.249 93.7656 367.033 92.8454C364.803 91.9252 363.08 90.5514 361.835 88.7499C360.591 86.9354 359.943 84.6932 359.878 82.0104H367.499C367.59 83.2546 367.94 84.3044 368.575 85.1339C369.21 85.9634 370.065 86.5855 371.141 87.0002C372.217 87.415 373.435 87.6223 374.783 87.6223C376.131 87.6223 377.271 87.4279 378.269 87.0391C379.267 86.6503 380.019 86.106 380.563 85.419C381.108 84.7321 381.38 83.9286 381.38 83.0343C381.38 82.1919 381.134 81.492 380.641 80.9217C380.149 80.3515 379.436 79.8719 378.503 79.4701C377.557 79.0684 376.416 78.7055 375.055 78.3815L370.999 77.3576C367.862 76.5929 365.387 75.4005 363.559 73.7805C361.745 72.1604 360.837 69.9701 360.85 67.2224C360.85 64.9673 361.447 62.9973 362.665 61.3124C363.883 59.6276 365.555 58.3185 367.694 57.3724C369.832 56.4263 372.256 55.9597 374.964 55.9597C377.673 55.9597 380.149 56.4263 382.209 57.3724C384.27 58.3185 385.89 59.6276 387.031 61.3124C388.184 62.9973 388.78 64.9543 388.806 67.1706H381.263Z" fill="white"/>
<path d="M419.659 93.7017H406.465V56.4661H419.776C423.521 56.4661 426.749 57.2048 429.444 58.6953C432.14 60.1857 434.227 62.3113 435.691 65.0848C437.156 67.8584 437.882 71.1763 437.882 75.0515C437.882 78.9267 437.156 82.2576 435.691 85.0441C434.227 87.8306 432.14 89.9691 429.418 91.4595C426.697 92.95 423.444 93.7017 419.659 93.7017ZM414.332 86.9622H419.335C421.668 86.9622 423.625 86.5475 425.219 85.718C426.813 84.8885 428.019 83.5925 428.822 81.8428C429.626 80.0931 430.028 77.825 430.028 75.0515C430.028 72.2779 429.626 70.0487 428.822 68.312C428.019 66.5623 426.813 65.2792 425.232 64.4627C423.651 63.6462 421.681 63.2315 419.361 63.2315H414.345V86.9752L414.332 86.9622Z" fill="white"/>
<path d="M456.162 94.244C453.336 94.244 450.9 93.6348 448.839 92.4295C446.778 91.2241 445.197 89.5393 444.083 87.3749C442.968 85.2105 442.411 82.6961 442.411 79.8448C442.411 76.9935 442.968 74.4402 444.083 72.2758C445.197 70.1114 446.778 68.4265 448.839 67.2212C450.887 66.0159 453.336 65.4067 456.162 65.4067C458.987 65.4067 461.424 66.0159 463.485 67.2212C465.545 68.4265 467.126 70.1114 468.241 72.2758C469.356 74.4402 469.913 76.9675 469.913 79.8448C469.913 82.722 469.356 85.2234 468.241 87.3749C467.126 89.5393 465.545 91.2241 463.485 92.4295C461.437 93.6348 458.987 94.244 456.162 94.244ZM456.201 88.2432C457.484 88.2432 458.559 87.8803 459.415 87.1416C460.27 86.4028 460.931 85.4049 461.372 84.1347C461.813 82.8646 462.033 81.413 462.033 79.7929C462.033 78.1729 461.813 76.7213 461.372 75.4512C460.931 74.181 460.283 73.1701 459.415 72.4314C458.559 71.6926 457.484 71.3167 456.201 71.3167C454.918 71.3167 453.816 71.6926 452.935 72.4314C452.053 73.1701 451.392 74.181 450.952 75.4512C450.511 76.7213 450.291 78.1729 450.291 79.7929C450.291 81.413 450.511 82.8646 450.952 84.1347C451.392 85.4049 452.053 86.4158 452.935 87.1416C453.816 87.8674 454.905 88.2432 456.201 88.2432Z" fill="white"/>
<path d="M482.714 56.4661V93.7017H474.964V56.4661H482.714Z" fill="white"/>
<path d="M496.627 56.4661V93.7017H488.876V56.4661H496.627Z" fill="white"/>
<path d="M510.77 94.231C508.994 94.231 507.4 93.9199 506.013 93.2978C504.613 92.6757 503.525 91.7426 502.708 90.5113C501.905 89.2801 501.503 87.7507 501.503 85.8974C501.503 84.3421 501.788 83.046 502.358 81.9833C502.929 80.9335 503.706 80.0781 504.691 79.443C505.676 78.795 506.791 78.3154 508.048 77.9914C509.305 77.6674 510.614 77.4341 512.001 77.3045C513.621 77.136 514.93 76.9805 515.928 76.825C516.926 76.6695 517.639 76.4491 518.092 76.1381C518.546 75.84 518.766 75.3864 518.766 74.7902V74.6865C518.766 73.533 518.403 72.6387 517.691 72.0166C516.965 71.3815 515.954 71.0705 514.632 71.0705C513.232 71.0705 512.131 71.3815 511.301 71.9907C510.472 72.5998 509.927 73.3645 509.668 74.2847L502.501 73.7015C502.864 72.0037 503.577 70.5391 504.639 69.2949C505.702 68.0507 507.089 67.0916 508.774 66.4177C510.459 65.7437 512.429 65.4067 514.658 65.4067C516.213 65.4067 517.691 65.5882 519.116 65.9511C520.542 66.314 521.812 66.8842 522.914 67.6359C524.028 68.4006 524.897 69.3727 525.545 70.578C526.193 71.7704 526.504 73.196 526.504 74.855V93.6867H519.155V89.8115H518.935C518.481 90.6798 517.885 91.4445 517.133 92.1055C516.382 92.7665 515.474 93.2849 514.425 93.6478C513.375 94.0236 512.156 94.2051 510.77 94.2051V94.231ZM512.999 88.8783C514.139 88.8783 515.15 88.645 516.019 88.1914C516.887 87.7378 517.574 87.1157 518.067 86.351C518.559 85.5733 518.818 84.692 518.818 83.72V80.752C518.572 80.9076 518.248 81.0501 517.833 81.1797C517.418 81.3093 516.939 81.426 516.421 81.5297C515.902 81.6333 515.384 81.7241 514.852 81.8018C514.334 81.8796 513.854 81.9444 513.44 82.0092C512.532 82.1388 511.742 82.3591 511.055 82.6443C510.381 82.9294 509.85 83.3312 509.474 83.8107C509.098 84.3032 508.903 84.9124 508.903 85.6382C508.903 86.688 509.292 87.4915 510.057 88.0488C510.822 88.6061 511.807 88.8783 512.999 88.8783Z" fill="white"/>
<path d="M532.52 93.7031V65.7731H540.024V70.6463H540.309C540.815 68.9096 541.67 67.6006 542.875 66.7063C544.081 65.812 545.454 65.3713 547.023 65.3713C547.411 65.3713 547.826 65.3973 548.28 65.4491C548.733 65.5009 549.122 65.5657 549.459 65.6435V72.5126C549.096 72.4089 548.591 72.3052 547.956 72.2275C547.321 72.1497 546.725 72.0979 546.193 72.0979C545.053 72.0979 544.042 72.3441 543.147 72.8366C542.253 73.3291 541.553 74.0031 541.035 74.8844C540.516 75.7657 540.257 76.7637 540.257 77.9042V93.7031H532.507H532.52Z" fill="white"/>
<path d="M147.437 200.927C145.985 200.927 144.676 200.68 143.549 200.175C142.421 199.669 141.514 198.982 140.84 198.075C140.166 197.168 139.816 196.144 139.751 194.952H142.538C142.603 195.678 142.849 196.313 143.29 196.831C143.73 197.349 144.314 197.764 145.026 198.049C145.739 198.334 146.53 198.477 147.398 198.477C148.37 198.477 149.239 198.309 149.977 197.972C150.729 197.635 151.312 197.168 151.74 196.559C152.168 195.95 152.375 195.25 152.375 194.459C152.375 193.669 152.168 192.891 151.753 192.256C151.338 191.621 150.742 191.115 149.938 190.765C149.148 190.403 148.176 190.221 147.022 190.221H145.208V187.785H147.022C147.917 187.785 148.707 187.629 149.394 187.292C150.081 186.968 150.612 186.514 151.001 185.918C151.39 185.335 151.584 184.635 151.584 183.845C151.584 183.054 151.416 182.419 151.079 181.849C150.742 181.278 150.262 180.838 149.653 180.527C149.044 180.216 148.318 180.047 147.489 180.047C146.711 180.047 145.973 180.19 145.286 180.475C144.599 180.76 144.041 181.162 143.601 181.706C143.16 182.237 142.927 182.885 142.888 183.637H140.231C140.27 182.445 140.633 181.408 141.307 180.514C141.981 179.619 142.849 178.92 143.938 178.414C145.026 177.909 146.219 177.662 147.528 177.662C148.928 177.662 150.133 177.947 151.131 178.505C152.129 179.062 152.906 179.814 153.438 180.734C153.969 181.654 154.241 182.652 154.241 183.715C154.241 184.985 153.904 186.074 153.243 186.968C152.582 187.862 151.675 188.484 150.535 188.834V189.016C151.96 189.249 153.075 189.858 153.878 190.83C154.682 191.802 155.084 193.008 155.084 194.446C155.084 195.678 154.747 196.779 154.086 197.751C153.425 198.723 152.518 199.501 151.364 200.058C150.211 200.615 148.902 200.901 147.437 200.901V200.927Z" fill="white"/>
<path d="M166.969 200.926C165.31 200.926 163.884 200.472 162.718 199.565C161.551 198.658 160.657 197.336 160.035 195.599C159.413 193.862 159.102 191.763 159.102 189.313C159.102 186.864 159.413 184.777 160.035 183.04C160.657 181.303 161.551 179.982 162.731 179.061C163.91 178.141 165.323 177.688 166.969 177.688C168.615 177.688 170.027 178.141 171.207 179.061C172.386 179.982 173.28 181.303 173.903 183.04C174.525 184.777 174.836 186.864 174.836 189.313C174.836 191.763 174.525 193.875 173.903 195.599C173.28 197.336 172.386 198.658 171.22 199.565C170.053 200.472 168.628 200.926 166.969 200.926ZM166.969 198.502C168.615 198.502 169.898 197.712 170.818 196.117C171.725 194.523 172.192 192.255 172.192 189.313C172.192 187.356 171.984 185.684 171.57 184.31C171.155 182.937 170.559 181.887 169.781 181.161C169.003 180.435 168.07 180.085 166.982 180.085C165.349 180.085 164.065 180.889 163.145 182.496C162.225 184.103 161.758 186.384 161.758 189.313C161.758 191.27 161.966 192.942 162.381 194.303C162.795 195.677 163.392 196.714 164.169 197.426C164.947 198.139 165.88 198.502 166.982 198.502H166.969Z" fill="white"/>
<path d="M179.069 200.614V183.649H181.583V186.306H181.804C182.153 185.399 182.724 184.699 183.514 184.193C184.305 183.688 185.251 183.442 186.353 183.442C187.454 183.442 188.4 183.688 189.152 184.193C189.904 184.699 190.487 185.399 190.902 186.306H191.083C191.511 185.425 192.172 184.738 193.04 184.206C193.909 183.688 194.946 183.429 196.164 183.429C197.68 183.429 198.924 183.908 199.883 184.854C200.843 185.8 201.335 187.265 201.335 189.261V200.614H198.73V189.261C198.73 188.004 198.393 187.11 197.706 186.578C197.019 186.047 196.216 185.775 195.282 185.775C194.09 185.775 193.17 186.137 192.509 186.85C191.848 187.563 191.524 188.47 191.524 189.572V200.614H188.867V188.989C188.867 188.03 188.556 187.239 187.934 186.656C187.312 186.06 186.508 185.762 185.51 185.762C184.836 185.762 184.201 185.943 183.618 186.306C183.035 186.669 182.555 187.161 182.205 187.796C181.842 188.431 181.674 189.17 181.674 190V200.601H179.069V200.614Z" fill="white"/>
<path d="M256.185 166.266H214.75V208.271H256.185V166.266Z" fill="#00780F"/>
<path d="M225.195 196.309H221.423V178.229H231.792V181.366H225.195V186.031H231.325V189.155H225.195V196.296V196.309Z" fill="white"/>
<path d="M249.935 196.312H245.554L241.355 189.468L237.156 196.312H233.047L239.048 186.993L233.436 178.245H237.661L241.562 184.751L245.386 178.245H249.52L243.844 187.213L249.948 196.325L249.935 196.312Z" fill="white"/>
<path d="M269.327 200.612V177.996H282.974V180.433H272.061V188.08H282.274V190.516H272.061V198.202H283.156V200.638H269.327V200.612Z" fill="white"/>
<path d="M302.783 177.996H305.517V192.979C305.517 194.521 305.155 195.908 304.429 197.113C303.703 198.318 302.679 199.278 301.357 199.977C300.035 200.677 298.493 201.027 296.717 201.027C294.942 201.027 293.399 200.677 292.077 199.977C290.755 199.278 289.731 198.331 289.006 197.113C288.28 195.895 287.917 194.521 287.917 192.979V177.996H290.652V192.758C290.652 193.86 290.898 194.845 291.377 195.7C291.87 196.556 292.557 197.23 293.464 197.722C294.371 198.215 295.447 198.461 296.704 198.461C297.961 198.461 299.05 198.215 299.957 197.722C300.865 197.23 301.551 196.556 302.044 195.7C302.524 194.845 302.77 193.86 302.77 192.758V177.996H302.783Z" fill="white"/>
<path d="M310.993 200.612V177.996H318.639C320.402 177.996 321.854 178.294 322.994 178.891C324.135 179.487 324.964 180.316 325.509 181.353C326.053 182.39 326.325 183.582 326.325 184.917C326.325 186.252 326.053 187.432 325.509 188.468C324.964 189.505 324.122 190.309 323.007 190.892C321.88 191.475 320.441 191.773 318.691 191.773H312.509V189.298H318.601C319.806 189.298 320.778 189.116 321.517 188.767C322.255 188.417 322.8 187.911 323.124 187.263C323.461 186.615 323.629 185.837 323.629 184.93C323.629 184.023 323.461 183.232 323.124 182.558C322.787 181.885 322.242 181.353 321.504 180.99C320.765 180.614 319.78 180.433 318.549 180.433H313.727V200.625H310.993V200.612ZM321.633 190.451L327.206 200.612H324.031L318.549 190.451H321.646H321.633Z" fill="white"/>
<path d="M345.714 177.996H348.449V192.979C348.449 194.521 348.086 195.908 347.36 197.113C346.635 198.318 345.611 199.278 344.289 199.977C342.967 200.677 341.424 201.027 339.649 201.027C337.873 201.027 336.331 200.677 335.009 199.977C333.687 199.278 332.663 198.331 331.937 197.113C331.212 195.895 330.849 194.521 330.849 192.979V177.996H333.583V192.758C333.583 193.86 333.83 194.845 334.309 195.7C334.802 196.556 335.489 197.23 336.396 197.722C337.303 198.215 338.379 198.461 339.636 198.461C340.893 198.461 341.982 198.215 342.889 197.722C343.796 197.23 344.483 196.556 344.976 195.7C345.455 194.845 345.701 193.86 345.701 192.758V177.996H345.714Z" fill="white"/>
<path d="M366.312 183.649C366.183 182.535 365.638 181.666 364.705 181.044C363.759 180.422 362.606 180.111 361.232 180.111C360.234 180.111 359.352 180.267 358.614 180.604C357.862 180.928 357.279 181.368 356.864 181.939C356.449 182.509 356.242 183.157 356.242 183.87C356.242 184.479 356.384 184.997 356.683 185.425C356.968 185.853 357.344 186.216 357.797 186.501C358.251 186.786 358.73 187.019 359.236 187.201C359.741 187.382 360.195 187.525 360.623 187.641L362.917 188.263C363.5 188.419 364.161 188.626 364.887 188.898C365.612 189.171 366.312 189.546 366.973 190.013C367.634 190.48 368.192 191.076 368.619 191.814C369.047 192.54 369.267 193.435 369.267 194.497C369.267 195.716 368.943 196.83 368.308 197.815C367.673 198.8 366.74 199.591 365.522 200.161C364.303 200.744 362.826 201.029 361.089 201.029C359.469 201.029 358.069 200.77 356.89 200.252C355.711 199.733 354.777 198.995 354.103 198.061C353.429 197.128 353.054 196.04 352.963 194.808H355.788C355.866 195.664 356.151 196.364 356.657 196.921C357.162 197.478 357.797 197.893 358.575 198.152C359.352 198.424 360.195 198.554 361.089 198.554C362.139 198.554 363.072 198.385 363.902 198.036C364.731 197.686 365.392 197.219 365.885 196.597C366.377 195.975 366.61 195.262 366.61 194.433C366.61 193.681 366.403 193.072 365.975 192.605C365.561 192.139 365.003 191.75 364.316 191.452C363.629 191.154 362.891 190.894 362.1 190.674L359.314 189.883C357.551 189.378 356.151 188.652 355.114 187.706C354.077 186.76 353.572 185.529 353.572 183.999C353.572 182.729 353.922 181.628 354.609 180.681C355.296 179.735 356.229 178.997 357.395 178.478C358.562 177.947 359.871 177.688 361.309 177.688C362.748 177.688 364.057 177.947 365.198 178.465C366.338 178.984 367.232 179.696 367.893 180.591C368.554 181.485 368.917 182.509 368.943 183.649H366.286H366.312Z" fill="white"/>
<path d="M380.766 200.612H373.781V177.996H381.065C383.255 177.996 385.134 178.45 386.702 179.344C388.258 180.251 389.463 181.535 390.292 183.219C391.122 184.904 391.537 186.913 391.537 189.259C391.537 191.605 391.122 193.64 390.28 195.338C389.437 197.035 388.219 198.344 386.612 199.252C385.005 200.159 383.06 200.612 380.754 200.612H380.766ZM376.515 198.189H380.585C382.451 198.189 384.007 197.826 385.238 197.1C386.469 196.374 387.389 195.351 387.986 194.016C388.582 192.681 388.893 191.099 388.893 189.259C388.893 187.419 388.595 185.863 387.998 184.541C387.402 183.219 386.508 182.209 385.329 181.496C384.136 180.783 382.672 180.433 380.896 180.433H376.515V198.189Z" fill="white"/>
</svg>
